<?xml version="1.0" encoding="iso-8859-1"?>
<!-- Uploaded to: SVG Repo, www.svgrepo.com, Generator: SVG Repo Mixer Tools -->
<svg fill="#000000" height="800px" width="800px" version="1.1" id="Layer_1" xmlns="http://www.w3.org/2000/svg" xmlns:xlink="http://www.w3.org/1999/xlink" 
	 viewBox="0 0 459.411 459.411" xml:space="preserve">
<g>
	<g>
		<path d="M358.615,148.09H335V41.249C334.999,18.504,316.495,0,293.75,0s-41.249,18.504-41.249,41.249V148.09h-45.589V41.249
			C206.912,18.504,188.407,0,165.662,0s-41.249,18.504-41.249,41.249V148.09h-23.616c-8.284,0-15,6.716-15,15v57.299
			c0,65.02,43.348,120.097,102.659,137.874v86.148c0,8.284,6.716,15,15,15h52.498c8.284,0,15-6.716,15-15v-86.148
			c59.311-17.777,102.659-72.854,102.659-137.874V163.09C373.615,154.806,366.899,148.09,358.615,148.09z M282.501,41.249
			c0-6.203,5.046-11.249,11.249-11.249s11.249,5.046,11.249,11.249V148.09h-22.498V41.249z M154.413,41.249L154.413,41.249
			c0-6.203,5.046-11.249,11.249-11.249s11.249,5.046,11.249,11.249V148.09h-22.498V41.249z M240.954,429.411h-22.498v-65.552
			c3.713,0.288,7.464,0.438,11.249,0.438c3.785,0,7.536-0.149,11.249-0.438V429.411z M343.615,220.389
			c0,62.81-51.099,113.908-113.908,113.908s-113.908-51.099-113.908-113.908V178.09h227.816V220.389z"/>
	</g>
</g>
</svg>